<?xml version="1.0" encoding="iso-8859-1"?>
<!-- Uploaded to: SVG Repo, www.svgrepo.com, Generator: SVG Repo Mixer Tools -->
<svg fill="#000000" version="1.1" id="Layer_1" xmlns="http://www.w3.org/2000/svg" xmlns:xlink="http://www.w3.org/1999/xlink" 
	 viewBox="0 0 512 512" xml:space="preserve">
<g>
	<g>
		<path d="M180.55,0v16.195h266.753v26.918H64.698V16.195h94.295V0H48.503v512h250.613v-16.195H64.698V366.492h223.637v-16.195
			H64.698v-16.139h382.604v161.648h-126.63V512h142.825V0H180.55z M447.302,317.963H64.698v-0.001V59.309h382.604V317.963z"/>
	</g>
</g>
<g>
	<g>
		<rect x="304.507" y="350.296" width="26.946" height="16.195"/>
	</g>
</g>
<g>
	<g>
		<rect x="347.619" y="350.296" width="26.946" height="16.195"/>
	</g>
</g>
<g>
	<g>
		<rect x="390.731" y="350.296" width="26.946" height="16.195"/>
	</g>
</g>
<g>
	<g>
		<path d="M161.676,388.021v86.256h188.65v-86.256H161.676z M177.872,404.216h156.258v21.529H177.872V404.216z M334.131,458.08
			H177.872v-16.139h156.259V458.08z"/>
	</g>
</g>
<g>
	<g>
		<rect x="369.17" y="388.021" width="59.281" height="16.195"/>
	</g>
</g>
<g>
	<g>
		<rect x="369.17" y="420.358" width="26.946" height="16.195"/>
	</g>
</g>
<g>
	<g>
		<rect x="401.507" y="420.358" width="26.946" height="16.195"/>
	</g>
</g>
<g>
	<g>
		<rect x="369.17" y="452.695" width="26.946" height="16.195"/>
	</g>
</g>
<g>
	<g>
		<rect x="401.507" y="452.695" width="26.946" height="16.195"/>
	</g>
</g>
<g>
	<g>
		<rect x="83.547" y="388.021" width="59.282" height="16.195"/>
	</g>
</g>
<g>
	<g>
		<rect x="83.547" y="420.358" width="26.946" height="16.195"/>
	</g>
</g>
<g>
	<g>
		<rect x="115.884" y="420.358" width="26.946" height="16.195"/>
	</g>
</g>
<g>
	<g>
		<rect x="83.547" y="452.695" width="26.946" height="16.195"/>
	</g>
</g>
<g>
	<g>
		<rect x="115.884" y="452.695" width="26.946" height="16.195"/>
	</g>
</g>
<g>
	<g>
		<path d="M293.444,179.598c1.953-4.777,2.989-9.933,2.989-15.214c0-19.523-13.908-35.856-32.335-39.617V78.157h-16.195v46.609
			c-18.427,3.761-32.335,20.094-32.335,39.617c0,5.28,1.035,10.437,2.989,15.215l-33.288,33.288l48.839,48.839l11.451-11.452
			l-37.388-37.387l19.55-19.55c7.397,7.307,17.425,11.479,28.278,11.479c10.854,0,20.882-4.173,28.278-11.479l19.55,19.55
			l-37.386,37.387l11.452,11.452l48.838-48.839L293.444,179.598z M276.718,176.92l-0.076,0.124
			c-4.333,7.249-12.049,11.578-20.642,11.578c-8.592,0-16.308-4.328-20.642-11.579l-0.076-0.123
			c-2.303-3.701-3.52-8.035-3.52-12.535c0-13.364,10.872-24.237,24.237-24.237c13.364,0,24.237,10.873,24.237,24.237
			C280.238,168.886,279.021,173.221,276.718,176.92z"/>
	</g>
</g>
<g>
	<g>
		<rect x="245.221" y="156.286" width="21.556" height="16.195"/>
	</g>
</g>
<g>
	<g>
		<polygon points="86.227,80.837 86.227,158.995 102.423,158.995 102.423,97.032 137.438,97.032 137.438,80.837 		"/>
	</g>
</g>
<g>
	<g>
		<rect x="86.225" y="175.159" width="16.195" height="26.946"/>
	</g>
</g>
<g>
	<g>
		<rect x="390.731" y="80.837" width="37.723" height="16.195"/>
	</g>
</g>
</svg>