<?xml version="1.0" encoding="UTF-8"?>
<!DOCTYPE svg PUBLIC "-//W3C//DTD SVG 1.1//EN" "http://www.w3.org/Graphics/SVG/1.1/DTD/svg11.dtd">
<svg xmlns="http://www.w3.org/2000/svg" version="1.1" width="981px" height="924px" style="shape-rendering:geometricPrecision; text-rendering:geometricPrecision; image-rendering:optimizeQuality; fill-rule:evenodd; clip-rule:evenodd" xmlns:xlink="http://www.w3.org/1999/xlink">
<g><path style="opacity:1" fill="#060606" d="M 67.5,-0.5 C 284.167,-0.5 500.833,-0.5 717.5,-0.5C 734.552,1.51858 749.552,8.18524 762.5,19.5C 763.419,22.0892 765.086,24.0892 767.5,25.5C 770.556,27.9485 772.889,30.9485 774.5,34.5C 774.427,36.0269 775.094,37.0269 776.5,37.5C 781.468,45.4013 784.468,54.068 785.5,63.5C 785.5,67.1667 785.5,70.8333 785.5,74.5C 772.167,74.5 758.833,74.5 745.5,74.5C 745.802,71.9407 745.468,69.6074 744.5,67.5C 742.178,60.1633 738.178,53.83 732.5,48.5C 732.027,47.0937 731.027,46.427 729.5,46.5C 725.367,44.5107 721.033,43.0107 716.5,42C 500.833,41.3333 285.167,41.3333 69.5,42C 52.6345,45.8643 43.1345,56.3643 41,73.5C 40.3333,332.167 40.3333,590.833 41,849.5C 41.573,855.129 43.073,860.463 45.5,865.5C 45.427,867.027 46.0937,868.027 47.5,868.5C 50.192,870.862 52.8587,873.196 55.5,875.5C 55.8212,877.048 56.8212,877.715 58.5,877.5C 62.0457,878.959 65.7124,880.126 69.5,881C 285.166,881.5 500.833,881.667 716.5,881.5C 720.081,881.862 723.081,880.862 725.5,878.5C 726.514,877.326 727.847,876.66 729.5,876.5C 731.027,876.573 732.027,875.906 732.5,874.5C 734.167,872.167 736.167,870.167 738.5,868.5C 739.906,868.027 740.573,867.027 740.5,865.5C 743.12,859.802 744.62,853.802 745,847.5C 745.5,791.834 745.667,736.168 745.5,680.5C 758.833,680.5 772.167,680.5 785.5,680.5C 785.5,740.167 785.5,799.833 785.5,859.5C 778.244,896.09 756.244,917.424 719.5,923.5C 501.833,923.5 284.167,923.5 66.5,923.5C 62.769,922.775 59.1023,921.775 55.5,920.5C 53.4855,919.076 51.1522,918.41 48.5,918.5C 43.2361,917.201 38.5694,914.868 34.5,911.5C 34.0269,910.094 33.0269,909.427 31.5,909.5C 30.7377,907.738 29.4044,906.738 27.5,906.5C 26.8333,906.5 26.5,906.167 26.5,905.5C 25.7377,903.738 24.4044,902.738 22.5,902.5C 10.5146,890.852 2.84794,876.852 -0.5,860.5C -0.5,594.5 -0.5,328.5 -0.5,62.5C 2.30325,48.8935 8.30325,36.8935 17.5,26.5C 19.5869,25.4154 20.9202,23.7488 21.5,21.5C 23.7488,20.9202 25.4154,19.5869 26.5,17.5C 27.5794,15.457 29.246,14.1237 31.5,13.5C 33.0269,13.573 34.0269,12.9063 34.5,11.5C 34.8417,10.6618 35.5084,10.3284 36.5,10.5C 38.0269,10.573 39.0269,9.90632 39.5,8.5C 48.343,3.88536 57.6763,0.885356 67.5,-0.5 Z"/></g>
<g><path style="opacity:1" fill="#787878" d="M 39.5,8.5 C 39.0269,9.90632 38.0269,10.573 36.5,10.5C 36.9731,9.09368 37.9731,8.42702 39.5,8.5 Z"/></g>
<g><path style="opacity:1" fill="#838383" d="M 34.5,11.5 C 34.0269,12.9063 33.0269,13.573 31.5,13.5C 31.9731,12.0937 32.9731,11.427 34.5,11.5 Z"/></g>
<g><path style="opacity:1" fill="#7f7f7f" d="M 26.5,17.5 C 25.4154,19.5869 23.7488,20.9202 21.5,21.5C 22.5846,19.4131 24.2512,18.0798 26.5,17.5 Z"/></g>
<g><path style="opacity:1" fill="#a4a4a4" d="M 762.5,19.5 C 764.914,20.9108 766.581,22.9108 767.5,25.5C 765.086,24.0892 763.419,22.0892 762.5,19.5 Z"/></g>
<g><path style="opacity:1" fill="#858585" d="M 21.5,21.5 C 20.9202,23.7488 19.5869,25.4154 17.5,26.5C 18.0798,24.2512 19.4131,22.5846 21.5,21.5 Z"/></g>
<g><path style="opacity:1" fill="#a6a6a6" d="M 774.5,34.5 C 775.906,34.9731 776.573,35.9731 776.5,37.5C 775.094,37.0269 774.427,36.0269 774.5,34.5 Z"/></g>
<g><path style="opacity:1" fill="#929292" d="M 729.5,46.5 C 731.027,46.427 732.027,47.0937 732.5,48.5C 730.973,48.573 729.973,47.9063 729.5,46.5 Z"/></g>
<g><path style="opacity:1" fill="#747474" d="M 785.5,63.5 C 786.483,67.2984 786.817,71.2984 786.5,75.5C 772.5,75.5 758.5,75.5 744.5,75.5C 744.5,72.8333 744.5,70.1667 744.5,67.5C 745.468,69.6074 745.802,71.9407 745.5,74.5C 758.833,74.5 772.167,74.5 785.5,74.5C 785.5,70.8333 785.5,67.1667 785.5,63.5 Z"/></g>
<g><path style="opacity:1" fill="#070707" d="M 912.5,120.5 C 912.821,122.048 913.821,122.715 915.5,122.5C 924.078,127.075 932.411,132.075 940.5,137.5C 941.035,139.446 942.368,140.446 944.5,140.5C 967.066,152.283 979.066,170.95 980.5,196.5C 980.5,197.5 980.5,198.5 980.5,199.5C 979.212,209.76 975.379,219.093 969,227.5C 871.274,373.562 773.941,519.895 677,666.5C 674.167,669.333 671.333,672.167 668.5,675C 625.669,702.583 582.669,729.916 539.5,757C 527.505,760.418 518.671,756.585 513,745.5C 511.524,740.924 511.19,736.257 512,731.5C 521.333,682.833 530.667,634.167 540,585.5C 540.844,581.771 542.344,578.437 544.5,575.5C 545.906,575.027 546.573,574.027 546.5,572.5C 547.906,572.027 548.573,571.027 548.5,569.5C 549.11,567.566 550.11,565.899 551.5,564.5C 552.906,564.027 553.573,563.027 553.5,561.5C 554.11,559.566 555.11,557.899 556.5,556.5C 557.906,556.027 558.573,555.027 558.5,553.5C 559.906,553.027 560.573,552.027 560.5,550.5C 561.11,548.566 562.11,546.899 563.5,545.5C 564.906,545.027 565.573,544.027 565.5,542.5C 566.906,542.027 567.573,541.027 567.5,539.5C 567.328,538.508 567.662,537.842 568.5,537.5C 569.906,537.027 570.573,536.027 570.5,534.5C 571.906,534.027 572.573,533.027 572.5,531.5C 573.11,529.566 574.11,527.899 575.5,526.5C 576.906,526.027 577.573,525.027 577.5,523.5C 578.906,523.027 579.573,522.027 579.5,520.5C 579.328,519.508 579.662,518.842 580.5,518.5C 581.906,518.027 582.573,517.027 582.5,515.5C 583.906,515.027 584.573,514.027 584.5,512.5C 585.11,510.566 586.11,508.899 587.5,507.5C 588.906,507.027 589.573,506.027 589.5,504.5C 590.906,504.027 591.573,503.027 591.5,501.5C 591.328,500.508 591.662,499.842 592.5,499.5C 593.906,499.027 594.573,498.027 594.5,496.5C 595.906,496.027 596.573,495.027 596.5,493.5C 597.11,491.566 598.11,489.899 599.5,488.5C 600.906,488.027 601.573,487.027 601.5,485.5C 602.906,485.027 603.573,484.027 603.5,482.5C 603.328,481.508 603.662,480.842 604.5,480.5C 605.906,480.027 606.573,479.027 606.5,477.5C 607.906,477.027 608.573,476.027 608.5,474.5C 609.11,472.566 610.11,470.899 611.5,469.5C 612.906,469.027 613.573,468.027 613.5,466.5C 614.906,466.027 615.573,465.027 615.5,463.5C 616.11,461.566 617.11,459.899 618.5,458.5C 619.906,458.027 620.573,457.027 620.5,455.5C 621.11,453.566 622.11,451.899 623.5,450.5C 624.906,450.027 625.573,449.027 625.5,447.5C 626.906,447.027 627.573,446.027 627.5,444.5C 628.11,442.566 629.11,440.899 630.5,439.5C 631.906,439.027 632.573,438.027 632.5,436.5C 633.906,436.027 634.573,435.027 634.5,433.5C 634.328,432.508 634.662,431.842 635.5,431.5C 636.906,431.027 637.573,430.027 637.5,428.5C 638.906,428.027 639.573,427.027 639.5,425.5C 640.11,423.566 641.11,421.899 642.5,420.5C 643.906,420.027 644.573,419.027 644.5,417.5C 645.906,417.027 646.573,416.027 646.5,414.5C 646.328,413.508 646.662,412.842 647.5,412.5C 648.906,412.027 649.573,411.027 649.5,409.5C 650.906,409.027 651.573,408.027 651.5,406.5C 652.11,404.566 653.11,402.899 654.5,401.5C 655.906,401.027 656.573,400.027 656.5,398.5C 657.906,398.027 658.573,397.027 658.5,395.5C 658.328,394.508 658.662,393.842 659.5,393.5C 660.906,393.027 661.573,392.027 661.5,390.5C 662.906,390.027 663.573,389.027 663.5,387.5C 664.11,385.566 665.11,383.899 666.5,382.5C 667.906,382.027 668.573,381.027 668.5,379.5C 669.906,379.027 670.573,378.027 670.5,376.5C 670.328,375.508 670.662,374.842 671.5,374.5C 672.906,374.027 673.573,373.027 673.5,371.5C 674.906,371.027 675.573,370.027 675.5,368.5C 676.11,366.566 677.11,364.899 678.5,363.5C 679.906,363.027 680.573,362.027 680.5,360.5C 681.906,360.027 682.573,359.027 682.5,357.5C 683.11,355.566 684.11,353.899 685.5,352.5C 686.906,352.027 687.573,351.027 687.5,349.5C 688.11,347.566 689.11,345.899 690.5,344.5C 691.906,344.027 692.573,343.027 692.5,341.5C 693.906,341.027 694.573,340.027 694.5,338.5C 695.11,336.566 696.11,334.899 697.5,333.5C 698.906,333.027 699.573,332.027 699.5,330.5C 700.11,328.566 701.11,326.899 702.5,325.5C 703.906,325.027 704.573,324.027 704.5,322.5C 705.906,322.027 706.573,321.027 706.5,319.5C 707.11,317.566 708.11,315.899 709.5,314.5C 710.906,314.027 711.573,313.027 711.5,311.5C 712.906,311.027 713.573,310.027 713.5,308.5C 713.328,307.508 713.662,306.842 714.5,306.5C 715.906,306.027 716.573,305.027 716.5,303.5C 717.906,303.027 718.573,302.027 718.5,300.5C 719.11,298.566 720.11,296.899 721.5,295.5C 722.906,295.027 723.573,294.027 723.5,292.5C 724.906,292.027 725.573,291.027 725.5,289.5C 725.328,288.508 725.662,287.842 726.5,287.5C 727.906,287.027 728.573,286.027 728.5,284.5C 729.906,284.027 730.573,283.027 730.5,281.5C 731.11,279.566 732.11,277.899 733.5,276.5C 734.906,276.027 735.573,275.027 735.5,273.5C 736.906,273.027 737.573,272.027 737.5,270.5C 737.328,269.508 737.662,268.842 738.5,268.5C 739.906,268.027 740.573,267.027 740.5,265.5C 741.906,265.027 742.573,264.027 742.5,262.5C 743.11,260.566 744.11,258.899 745.5,257.5C 746.906,257.027 747.573,256.027 747.5,254.5C 748.906,254.027 749.573,253.027 749.5,251.5C 750.11,249.566 751.11,247.899 752.5,246.5C 753.906,246.027 754.573,245.027 754.5,243.5C 755.11,241.566 756.11,239.899 757.5,238.5C 758.906,238.027 759.573,237.027 759.5,235.5C 760.906,235.027 761.573,234.027 761.5,232.5C 762.11,230.566 763.11,228.899 764.5,227.5C 765.906,227.027 766.573,226.027 766.5,224.5C 767.11,222.566 768.11,220.899 769.5,219.5C 770.906,219.027 771.573,218.027 771.5,216.5C 772.906,216.027 773.573,215.027 773.5,213.5C 774.11,211.566 775.11,209.899 776.5,208.5C 777.906,208.027 778.573,207.027 778.5,205.5C 779.906,205.027 780.573,204.027 780.5,202.5C 780.328,201.508 780.662,200.842 781.5,200.5C 782.906,200.027 783.573,199.027 783.5,197.5C 784.906,197.027 785.573,196.027 785.5,194.5C 786.11,192.566 787.11,190.899 788.5,189.5C 789.906,189.027 790.573,188.027 790.5,186.5C 791.906,186.027 792.573,185.027 792.5,183.5C 793.906,183.027 794.573,182.027 794.5,180.5C 795.906,180.027 796.573,179.027 796.5,177.5C 797.786,174.883 799.453,172.55 801.5,170.5C 802.906,170.027 803.573,169.027 803.5,167.5C 804.906,167.027 805.573,166.027 805.5,164.5C 806.786,161.883 808.453,159.55 810.5,157.5C 811.906,157.027 812.573,156.027 812.5,154.5C 813.906,154.027 814.573,153.027 814.5,151.5C 815.786,148.883 817.453,146.55 819.5,144.5C 820.906,144.027 821.573,143.027 821.5,141.5C 822.906,141.027 823.573,140.027 823.5,138.5C 825.262,137.738 826.262,136.404 826.5,134.5C 826.427,132.973 827.094,131.973 828.5,131.5C 829.906,131.027 830.573,130.027 830.5,128.5C 836.965,120.1 845.299,114.433 855.5,111.5C 858.152,111.59 860.485,110.924 862.5,109.5C 871.143,108.131 879.81,108.297 888.5,110C 896.877,112.69 904.877,116.19 912.5,120.5 Z M 895.5,158.5 C 895.973,159.906 896.973,160.573 898.5,160.5C 902.164,163.335 906.164,165.668 910.5,167.5C 910.973,168.906 911.973,169.573 913.5,169.5C 913.973,170.906 914.973,171.573 916.5,171.5C 916.973,172.906 917.973,173.573 919.5,173.5C 919.973,174.906 920.973,175.573 922.5,175.5C 922.973,176.906 923.973,177.573 925.5,177.5C 925.973,178.906 926.973,179.573 928.5,179.5C 935.957,184.891 938.624,191.891 936.5,200.5C 935.094,200.973 934.427,201.973 934.5,203.5C 933.094,203.973 932.427,204.973 932.5,206.5C 931.094,206.973 930.427,207.973 930.5,209.5C 926.932,214.291 923.598,219.291 920.5,224.5C 919.094,224.973 918.427,225.973 918.5,227.5C 917.094,227.973 916.427,228.973 916.5,230.5C 915.094,230.973 914.427,231.973 914.5,233.5C 913.094,233.973 912.427,234.973 912.5,236.5C 911.5,237.167 910.5,237.833 909.5,238.5C 907.469,236.478 905.135,234.811 902.5,233.5C 901.564,232.026 900.23,231.026 898.5,230.5C 890.464,224.475 882.13,218.809 873.5,213.5C 872.564,212.026 871.23,211.026 869.5,210.5C 866.709,208.265 863.709,206.265 860.5,204.5C 859.564,203.026 858.23,202.026 856.5,201.5C 853.709,199.265 850.709,197.265 847.5,195.5C 846.564,194.026 845.23,193.026 843.5,192.5C 841.278,191.464 840.112,189.797 840,187.5C 847.956,176.421 855.79,165.254 863.5,154C 868.106,150.967 873.106,149.967 878.5,151C 884.188,153.512 889.855,156.012 895.5,158.5 Z M 815.5,224.5 C 816.391,225.11 817.391,225.443 818.5,225.5C 818.973,226.906 819.973,227.573 821.5,227.5C 821.973,228.906 822.973,229.573 824.5,229.5C 826.55,231.547 828.883,233.214 831.5,234.5C 831.973,235.906 832.973,236.573 834.5,236.5C 834.973,237.906 835.973,238.573 837.5,238.5C 839.55,240.547 841.883,242.214 844.5,243.5C 844.973,244.906 845.973,245.573 847.5,245.5C 847.973,246.906 848.973,247.573 850.5,247.5C 852.55,249.547 854.883,251.214 857.5,252.5C 857.973,253.906 858.973,254.573 860.5,254.5C 860.973,255.906 861.973,256.573 863.5,256.5C 864.262,258.262 865.596,259.262 867.5,259.5C 867.973,260.906 868.973,261.573 870.5,261.5C 870.973,262.906 871.973,263.573 873.5,263.5C 873.973,264.906 874.973,265.573 876.5,265.5C 877.262,267.262 878.596,268.262 880.5,268.5C 880.973,269.906 881.973,270.573 883.5,270.5C 883.973,271.906 884.973,272.573 886.5,272.5C 886.649,273.552 886.483,274.552 886,275.5C 881.896,281.387 878.062,287.387 874.5,293.5C 873.094,293.973 872.427,294.973 872.5,296.5C 871.094,296.973 870.427,297.973 870.5,299.5C 869.094,299.973 868.427,300.973 868.5,302.5C 867.094,302.973 866.427,303.973 866.5,305.5C 865.094,305.973 864.427,306.973 864.5,308.5C 863.094,308.973 862.427,309.973 862.5,311.5C 861.094,311.973 860.427,312.973 860.5,314.5C 859.094,314.973 858.427,315.973 858.5,317.5C 857.094,317.973 856.427,318.973 856.5,320.5C 855.094,320.973 854.427,321.973 854.5,323.5C 853.094,323.973 852.427,324.973 852.5,326.5C 851.094,326.973 850.427,327.973 850.5,329.5C 849.094,329.973 848.427,330.973 848.5,332.5C 847.094,332.973 846.427,333.973 846.5,335.5C 845.094,335.973 844.427,336.973 844.5,338.5C 843.094,338.973 842.427,339.973 842.5,341.5C 841.094,341.973 840.427,342.973 840.5,344.5C 839.094,344.973 838.427,345.973 838.5,347.5C 837.094,347.973 836.427,348.973 836.5,350.5C 835.094,350.973 834.427,351.973 834.5,353.5C 833.094,353.973 832.427,354.973 832.5,356.5C 831.094,356.973 830.427,357.973 830.5,359.5C 829.094,359.973 828.427,360.973 828.5,362.5C 827.094,362.973 826.427,363.973 826.5,365.5C 825.094,365.973 824.427,366.973 824.5,368.5C 823.094,368.973 822.427,369.973 822.5,371.5C 821.094,371.973 820.427,372.973 820.5,374.5C 819.094,374.973 818.427,375.973 818.5,377.5C 817.094,377.973 816.427,378.973 816.5,380.5C 815.094,380.973 814.427,381.973 814.5,383.5C 813.094,383.973 812.427,384.973 812.5,386.5C 803.115,399.891 794.115,413.557 785.5,427.5C 784.094,427.973 783.427,428.973 783.5,430.5C 782.094,430.973 781.427,431.973 781.5,433.5C 780.094,433.973 779.427,434.973 779.5,436.5C 778.094,436.973 777.427,437.973 777.5,439.5C 776.094,439.973 775.427,440.973 775.5,442.5C 774.094,442.973 773.427,443.973 773.5,445.5C 772.094,445.973 771.427,446.973 771.5,448.5C 770.094,448.973 769.427,449.973 769.5,451.5C 768.094,451.973 767.427,452.973 767.5,454.5C 766.094,454.973 765.427,455.973 765.5,457.5C 764.094,457.973 763.427,458.973 763.5,460.5C 762.094,460.973 761.427,461.973 761.5,463.5C 760.094,463.973 759.427,464.973 759.5,466.5C 758.094,466.973 757.427,467.973 757.5,469.5C 756.094,469.973 755.427,470.973 755.5,472.5C 754.094,472.973 753.427,473.973 753.5,475.5C 752.094,475.973 751.427,476.973 751.5,478.5C 750.094,478.973 749.427,479.973 749.5,481.5C 748.094,481.973 747.427,482.973 747.5,484.5C 746.094,484.973 745.427,485.973 745.5,487.5C 744.094,487.973 743.427,488.973 743.5,490.5C 742.094,490.973 741.427,491.973 741.5,493.5C 740.094,493.973 739.427,494.973 739.5,496.5C 738.094,496.973 737.427,497.973 737.5,499.5C 736.094,499.973 735.427,500.973 735.5,502.5C 734.094,502.973 733.427,503.973 733.5,505.5C 732.094,505.973 731.427,506.973 731.5,508.5C 730.094,508.973 729.427,509.973 729.5,511.5C 728.094,511.973 727.427,512.973 727.5,514.5C 726.094,514.973 725.427,515.973 725.5,517.5C 724.094,517.973 723.427,518.973 723.5,520.5C 722.094,520.973 721.427,521.973 721.5,523.5C 712.115,536.891 703.115,550.557 694.5,564.5C 693.094,564.973 692.427,565.973 692.5,567.5C 691.094,567.973 690.427,568.973 690.5,570.5C 689.094,570.973 688.427,571.973 688.5,573.5C 687.094,573.973 686.427,574.973 686.5,576.5C 685.094,576.973 684.427,577.973 684.5,579.5C 683.094,579.973 682.427,580.973 682.5,582.5C 681.094,582.973 680.427,583.973 680.5,585.5C 679.094,585.973 678.427,586.973 678.5,588.5C 677.094,588.973 676.427,589.973 676.5,591.5C 675.094,591.973 674.427,592.973 674.5,594.5C 673.094,594.973 672.427,595.973 672.5,597.5C 671.094,597.973 670.427,598.973 670.5,600.5C 669.094,600.973 668.427,601.973 668.5,603.5C 667.094,603.973 666.427,604.973 666.5,606.5C 665.094,606.973 664.427,607.973 664.5,609.5C 663.094,609.973 662.427,610.973 662.5,612.5C 661.094,612.973 660.427,613.973 660.5,615.5C 659.094,615.973 658.427,616.973 658.5,618.5C 657.094,618.973 656.427,619.973 656.5,621.5C 655.094,621.973 654.427,622.973 654.5,624.5C 653.5,625.167 652.5,625.833 651.5,626.5C 646.397,621.775 640.731,617.775 634.5,614.5C 633.564,613.026 632.23,612.026 630.5,611.5C 621.045,604.599 611.378,597.933 601.5,591.5C 600.564,590.026 599.23,589.026 597.5,588.5C 594.901,586.521 592.235,584.521 589.5,582.5C 664.844,463.139 740.177,343.805 815.5,224.5 Z M 576.5,624.5 C 576.973,625.906 577.973,626.573 579.5,626.5C 581.55,628.547 583.883,630.214 586.5,631.5C 586.973,632.906 587.973,633.573 589.5,633.5C 589.973,634.906 590.973,635.573 592.5,635.5C 593.262,637.262 594.596,638.262 596.5,638.5C 596.973,639.906 597.973,640.573 599.5,640.5C 599.973,641.906 600.973,642.573 602.5,642.5C 604.55,644.547 606.883,646.214 609.5,647.5C 609.973,648.906 610.973,649.573 612.5,649.5C 612.973,650.906 613.973,651.573 615.5,651.5C 616.262,653.262 617.596,654.262 619.5,654.5C 619.229,656.43 618.229,657.764 616.5,658.5C 614.973,658.427 613.973,659.094 613.5,660.5C 611.973,660.427 610.973,661.094 610.5,662.5C 607.489,663.669 604.822,665.336 602.5,667.5C 600.973,667.427 599.973,668.094 599.5,669.5C 597.973,669.427 596.973,670.094 596.5,671.5C 592.561,673.446 588.894,675.779 585.5,678.5C 583.973,678.427 582.973,679.094 582.5,680.5C 578.561,682.446 574.894,684.779 571.5,687.5C 569.973,687.427 568.973,688.094 568.5,689.5C 566.973,689.427 565.973,690.094 565.5,691.5C 564.508,691.328 563.842,691.662 563.5,692.5C 562.566,691.432 562.232,690.099 562.5,688.5C 567.008,667.626 571.008,646.626 574.5,625.5C 575.167,625.167 575.833,624.833 576.5,624.5 Z"/></g>
<g><path style="opacity:1" fill="#5d5d5d" d="M 862.5,109.5 C 860.485,110.924 858.152,111.59 855.5,111.5C 857.515,110.076 859.848,109.41 862.5,109.5 Z"/></g>
<g><path style="opacity:1" fill="#777777" d="M 912.5,120.5 C 913.71,120.932 914.71,121.599 915.5,122.5C 913.821,122.715 912.821,122.048 912.5,120.5 Z"/></g>
<g><path style="opacity:1" fill="#878787" d="M 830.5,128.5 C 830.573,130.027 829.906,131.027 828.5,131.5C 828.427,129.973 829.094,128.973 830.5,128.5 Z"/></g>
<g><path style="opacity:1" fill="#777777" d="M 826.5,134.5 C 826.262,136.404 825.262,137.738 823.5,138.5C 823.738,136.596 824.738,135.262 826.5,134.5 Z"/></g>
<g><path style="opacity:1" fill="#7d7d7d" d="M 940.5,137.5 C 942.23,138.026 943.564,139.026 944.5,140.5C 942.368,140.446 941.035,139.446 940.5,137.5 Z"/></g>
<g><path style="opacity:1" fill="#8f8f8f" d="M 823.5,138.5 C 823.573,140.027 822.906,141.027 821.5,141.5C 821.427,139.973 822.094,138.973 823.5,138.5 Z"/></g>
<g><path style="opacity:1" fill="#808080" d="M 821.5,141.5 C 821.573,143.027 820.906,144.027 819.5,144.5C 819.427,142.973 820.094,141.973 821.5,141.5 Z"/></g>
<g><path style="opacity:1" fill="#8e8e8e" d="M 814.5,151.5 C 814.573,153.027 813.906,154.027 812.5,154.5C 812.427,152.973 813.094,151.973 814.5,151.5 Z"/></g>
<g><path style="opacity:1" fill="#7e7e7e" d="M 812.5,154.5 C 812.573,156.027 811.906,157.027 810.5,157.5C 810.427,155.973 811.094,154.973 812.5,154.5 Z"/></g>
<g><path style="opacity:1" fill="#9b9b9b" d="M 895.5,158.5 C 897.027,158.427 898.027,159.094 898.5,160.5C 896.973,160.573 895.973,159.906 895.5,158.5 Z"/></g>
<g><path style="opacity:1" fill="#8e8e8e" d="M 805.5,164.5 C 805.573,166.027 804.906,167.027 803.5,167.5C 803.427,165.973 804.094,164.973 805.5,164.5 Z"/></g>
<g><path style="opacity:1" fill="#9a9a9a" d="M 910.5,167.5 C 912.027,167.427 913.027,168.094 913.5,169.5C 911.973,169.573 910.973,168.906 910.5,167.5 Z"/></g>
<g><path style="opacity:1" fill="#7e7e7e" d="M 803.5,167.5 C 803.573,169.027 802.906,170.027 801.5,170.5C 801.427,168.973 802.094,167.973 803.5,167.5 Z"/></g>
<g><path style="opacity:1" fill="#a2a2a2" d="M 913.5,169.5 C 915.027,169.427 916.027,170.094 916.5,171.5C 914.973,171.573 913.973,170.906 913.5,169.5 Z"/></g>
<g><path style="opacity:1" fill="#a1a1a1" d="M 916.5,171.5 C 918.027,171.427 919.027,172.094 919.5,173.5C 917.973,173.573 916.973,172.906 916.5,171.5 Z"/></g>
<g><path style="opacity:1" fill="#9f9f9f" d="M 919.5,173.5 C 921.027,173.427 922.027,174.094 922.5,175.5C 920.973,175.573 919.973,174.906 919.5,173.5 Z"/></g>
<g><path style="opacity:1" fill="#a1a1a1" d="M 922.5,175.5 C 924.027,175.427 925.027,176.094 925.5,177.5C 923.973,177.573 922.973,176.906 922.5,175.5 Z"/></g>
<g><path style="opacity:1" fill="#8e8e8e" d="M 925.5,177.5 C 927.027,177.427 928.027,178.094 928.5,179.5C 926.973,179.573 925.973,178.906 925.5,177.5 Z"/></g>
<g><path style="opacity:1" fill="#8c8c8c" d="M 796.5,177.5 C 796.573,179.027 795.906,180.027 794.5,180.5C 794.427,178.973 795.094,177.973 796.5,177.5 Z"/></g>
<g><path style="opacity:1" fill="#7f7f7f" d="M 794.5,180.5 C 794.573,182.027 793.906,183.027 792.5,183.5C 792.427,181.973 793.094,180.973 794.5,180.5 Z"/></g>
<g><path style="opacity:1" fill="#808080" d="M 792.5,183.5 C 792.573,185.027 791.906,186.027 790.5,186.5C 790.427,184.973 791.094,183.973 792.5,183.5 Z"/></g>
<g><path style="opacity:1" fill="#020202" d="M 635.5,189.5 C 636.035,191.446 637.368,192.446 639.5,192.5C 640.5,192.833 641.167,193.5 641.5,194.5C 641.427,196.027 642.094,197.027 643.5,197.5C 644.338,197.842 644.672,198.508 644.5,199.5C 645.229,204.13 645.563,208.797 645.5,213.5C 643.76,221.075 639.093,225.908 631.5,228C 456.833,228.667 282.167,228.667 107.5,228C 105.934,227.392 104.6,226.558 103.5,225.5C 102.738,223.738 101.404,222.738 99.5,222.5C 96.5505,220.272 94.8838,217.272 94.5,213.5C 94.4372,208.797 94.7705,204.13 95.5,199.5C 95.3284,198.508 95.6618,197.842 96.5,197.5C 98.2624,196.738 99.2624,195.404 99.5,193.5C 101.404,193.262 102.738,192.262 103.5,190.5C 104.6,189.442 105.934,188.608 107.5,188C 282.5,187.333 457.5,187.333 632.5,188C 633.527,188.513 634.527,189.013 635.5,189.5 Z"/></g>
<g><path style="opacity:1" fill="#959595" d="M 790.5,186.5 C 790.573,188.027 789.906,189.027 788.5,189.5C 788.427,187.973 789.094,186.973 790.5,186.5 Z"/></g>
<g><path style="opacity:1" fill="#7b7b7b" d="M 635.5,189.5 C 637.23,190.026 638.564,191.026 639.5,192.5C 637.368,192.446 636.035,191.446 635.5,189.5 Z"/></g>
<g><path style="opacity:1" fill="#777777" d="M 103.5,190.5 C 102.738,192.262 101.404,193.262 99.5,193.5C 100.262,191.738 101.596,190.738 103.5,190.5 Z"/></g>
<g><path style="opacity:1" fill="#808080" d="M 843.5,192.5 C 845.23,193.026 846.564,194.026 847.5,195.5C 845.368,195.446 844.035,194.446 843.5,192.5 Z"/></g>
<g><path style="opacity:1" fill="#848484" d="M 99.5,193.5 C 99.2624,195.404 98.2624,196.738 96.5,197.5C 96.7376,195.596 97.7376,194.262 99.5,193.5 Z"/></g>
<g><path style="opacity:1" fill="#a7a7a7" d="M 641.5,194.5 C 642.906,194.973 643.573,195.973 643.5,197.5C 642.094,197.027 641.427,196.027 641.5,194.5 Z"/></g>
<g><path style="opacity:1" fill="#888888" d="M 785.5,194.5 C 785.573,196.027 784.906,197.027 783.5,197.5C 783.427,195.973 784.094,194.973 785.5,194.5 Z"/></g>
<g><path style="opacity:1" fill="#9d9d9d" d="M 783.5,197.5 C 783.573,199.027 782.906,200.027 781.5,200.5C 781.427,198.973 782.094,197.973 783.5,197.5 Z"/></g>
<g><path style="opacity:1" fill="#7f7f7f" d="M 856.5,201.5 C 858.23,202.026 859.564,203.026 860.5,204.5C 858.368,204.446 857.035,203.446 856.5,201.5 Z"/></g>
<g><path style="opacity:1" fill="#898989" d="M 936.5,200.5 C 936.573,202.027 935.906,203.027 934.5,203.5C 934.427,201.973 935.094,200.973 936.5,200.5 Z"/></g>
<g><path style="opacity:1" fill="#7e7e7e" d="M 780.5,202.5 C 780.573,204.027 779.906,205.027 778.5,205.5C 778.427,203.973 779.094,202.973 780.5,202.5 Z"/></g>
<g><path style="opacity:1" fill="#888888" d="M 95.5,199.5 C 94.7705,204.13 94.4372,208.797 94.5,213.5C 93.8389,211.866 93.5056,210.033 93.5,208C 93.3603,204.85 94.027,202.017 95.5,199.5 Z"/></g>
<g><path style="opacity:1" fill="#8a8a8a" d="M 644.5,199.5 C 645.973,202.017 646.64,204.85 646.5,208C 646.494,210.033 646.161,211.866 645.5,213.5C 645.563,208.797 645.229,204.13 644.5,199.5 Z"/></g>
<g><path style="opacity:1" fill="#999999" d="M 934.5,203.5 C 934.573,205.027 933.906,206.027 932.5,206.5C 932.427,204.973 933.094,203.973 934.5,203.5 Z"/></g>
<g><path style="opacity:1" fill="#939393" d="M 778.5,205.5 C 778.573,207.027 777.906,208.027 776.5,208.5C 776.427,206.973 777.094,205.973 778.5,205.5 Z"/></g>
<g><path style="opacity:1" fill="#9f9f9f" d="M 932.5,206.5 C 932.573,208.027 931.906,209.027 930.5,209.5C 930.427,207.973 931.094,206.973 932.5,206.5 Z"/></g>
<g><path style="opacity:1" fill="#7c7c7c" d="M 869.5,210.5 C 871.23,211.026 872.564,212.026 873.5,213.5C 871.368,213.446 870.035,212.446 869.5,210.5 Z"/></g>
<g><path style="opacity:1" fill="#888888" d="M 773.5,213.5 C 773.573,215.027 772.906,216.027 771.5,216.5C 771.427,214.973 772.094,213.973 773.5,213.5 Z"/></g>
<g><path style="opacity:1" fill="#9b9b9b" d="M 771.5,216.5 C 771.573,218.027 770.906,219.027 769.5,219.5C 769.427,217.973 770.094,216.973 771.5,216.5 Z"/></g>
<g><path style="opacity:1" fill="#7d7d7d" d="M 99.5,222.5 C 101.404,222.738 102.738,223.738 103.5,225.5C 101.596,225.262 100.262,224.262 99.5,222.5 Z"/></g>
<g><path style="opacity:1" fill="#9c9c9c" d="M 815.5,224.5 C 816.779,223.285 817.779,223.618 818.5,225.5C 817.391,225.443 816.391,225.11 815.5,224.5 Z"/></g>
<g><path style="opacity:1" fill="#919191" d="M 766.5,224.5 C 766.573,226.027 765.906,227.027 764.5,227.5C 764.427,225.973 765.094,224.973 766.5,224.5 Z"/></g>
<g><path style="opacity:1" fill="#8f8f8f" d="M 818.5,225.5 C 820.027,225.427 821.027,226.094 821.5,227.5C 819.973,227.573 818.973,226.906 818.5,225.5 Z"/></g>
<g><path style="opacity:1" fill="#a2a2a2" d="M 920.5,224.5 C 920.573,226.027 919.906,227.027 918.5,227.5C 918.427,225.973 919.094,224.973 920.5,224.5 Z"/></g>
<g><path style="opacity:1" fill="#7c7c7c" d="M 821.5,227.5 C 823.027,227.427 824.027,228.094 824.5,229.5C 822.973,229.573 821.973,228.906 821.5,227.5 Z"/></g>
<g><path style="opacity:1" fill="#a0a0a0" d="M 918.5,227.5 C 918.573,229.027 917.906,230.027 916.5,230.5C 916.427,228.973 917.094,227.973 918.5,227.5 Z"/></g>
<g><path style="opacity:1" fill="#7f7f7f" d="M 898.5,230.5 C 900.23,231.026 901.564,232.026 902.5,233.5C 900.368,233.446 899.035,232.446 898.5,230.5 Z"/></g>
<g><path style="opacity:1" fill="#9b9b9b" d="M 916.5,230.5 C 916.573,232.027 915.906,233.027 914.5,233.5C 914.427,231.973 915.094,230.973 916.5,230.5 Z"/></g>
<g><path style="opacity:1" fill="#878787" d="M 761.5,232.5 C 761.573,234.027 760.906,235.027 759.5,235.5C 759.427,233.973 760.094,232.973 761.5,232.5 Z"/></g>
<g><path style="opacity:1" fill="#8a8a8a" d="M 831.5,234.5 C 833.027,234.427 834.027,235.094 834.5,236.5C 832.973,236.573 831.973,235.906 831.5,234.5 Z"/></g>
<g><path style="opacity:1" fill="#999999" d="M 914.5,233.5 C 914.573,235.027 913.906,236.027 912.5,236.5C 912.427,234.973 913.094,233.973 914.5,233.5 Z"/></g>
<g><path style="opacity:1" fill="#9a9a9a" d="M 759.5,235.5 C 759.573,237.027 758.906,238.027 757.5,238.5C 757.427,236.973 758.094,235.973 759.5,235.5 Z"/></g>
<g><path style="opacity:1" fill="#7c7c7c" d="M 834.5,236.5 C 836.027,236.427 837.027,237.094 837.5,238.5C 835.973,238.573 834.973,237.906 834.5,236.5 Z"/></g>
<g><path style="opacity:1" fill="#919191" d="M 912.5,236.5 C 912.332,239.051 911.332,239.718 909.5,238.5C 910.5,237.833 911.5,237.167 912.5,236.5 Z"/></g>
<g><path style="opacity:1" fill="#8a8a8a" d="M 844.5,243.5 C 846.027,243.427 847.027,244.094 847.5,245.5C 845.973,245.573 844.973,244.906 844.5,243.5 Z"/></g>
<g><path style="opacity:1" fill="#909090" d="M 754.5,243.5 C 754.573,245.027 753.906,246.027 752.5,246.5C 752.427,244.973 753.094,243.973 754.5,243.5 Z"/></g>
<g><path style="opacity:1" fill="#7a7a7a" d="M 847.5,245.5 C 849.027,245.427 850.027,246.094 850.5,247.5C 848.973,247.573 847.973,246.906 847.5,245.5 Z"/></g>
<g><path style="opacity:1" fill="#848484" d="M 749.5,251.5 C 749.573,253.027 748.906,254.027 747.5,254.5C 747.427,252.973 748.094,251.973 749.5,251.5 Z"/></g>
<g><path style="opacity:1" fill="#898989" d="M 857.5,252.5 C 859.027,252.427 860.027,253.094 860.5,254.5C 858.973,254.573 857.973,253.906 857.5,252.5 Z"/></g>
<g><path style="opacity:1" fill="#797979" d="M 860.5,254.5 C 862.027,254.427 863.027,255.094 863.5,256.5C 861.973,256.573 860.973,255.906 860.5,254.5 Z"/></g>
<g><path style="opacity:1" fill="#999999" d="M 747.5,254.5 C 747.573,256.027 746.906,257.027 745.5,257.5C 745.427,255.973 746.094,254.973 747.5,254.5 Z"/></g>
<g><path style="opacity:1" fill="#7b7b7b" d="M 863.5,256.5 C 865.404,256.738 866.738,257.738 867.5,259.5C 865.596,259.262 864.262,258.262 863.5,256.5 Z"/></g>
<g><path style="opacity:1" fill="#979797" d="M 867.5,259.5 C 869.027,259.427 870.027,260.094 870.5,261.5C 868.973,261.573 867.973,260.906 867.5,259.5 Z"/></g>
<g><path style="opacity:1" fill="#878787" d="M 870.5,261.5 C 872.027,261.427 873.027,262.094 873.5,263.5C 871.973,263.573 870.973,262.906 870.5,261.5 Z"/></g>
<g><path style="opacity:1" fill="#8d8d8d" d="M 742.5,262.5 C 742.573,264.027 741.906,265.027 740.5,265.5C 740.427,263.973 741.094,262.973 742.5,262.5 Z"/></g>
<g><path style="opacity:1" fill="#797979" d="M 873.5,263.5 C 875.027,263.427 876.027,264.094 876.5,265.5C 874.973,265.573 873.973,264.906 873.5,263.5 Z"/></g>
<g><path style="opacity:1" fill="#7a7a7a" d="M 876.5,265.5 C 878.404,265.738 879.738,266.738 880.5,268.5C 878.596,268.262 877.262,267.262 876.5,265.5 Z"/></g>
<g><path style="opacity:1" fill="#a2a2a2" d="M 740.5,265.5 C 740.573,267.027 739.906,268.027 738.5,268.5C 738.427,266.973 739.094,265.973 740.5,265.5 Z"/></g>
<g><path style="opacity:1" fill="#969696" d="M 880.5,268.5 C 882.027,268.427 883.027,269.094 883.5,270.5C 881.973,270.573 880.973,269.906 880.5,268.5 Z"/></g>
<g><path style="opacity:1" fill="#868686" d="M 883.5,270.5 C 885.027,270.427 886.027,271.094 886.5,272.5C 884.973,272.573 883.973,271.906 883.5,270.5 Z"/></g>
<g><path style="opacity:1" fill="#828282" d="M 737.5,270.5 C 737.573,272.027 736.906,273.027 735.5,273.5C 735.427,271.973 736.094,270.973 737.5,270.5 Z"/></g>
<g><path style="opacity:1" fill="#979797" d="M 735.5,273.5 C 735.573,275.027 734.906,276.027 733.5,276.5C 733.427,274.973 734.094,273.973 735.5,273.5 Z"/></g>
<g><path style="opacity:1" fill="#8c8c8c" d="M 730.5,281.5 C 730.573,283.027 729.906,284.027 728.5,284.5C 728.427,282.973 729.094,281.973 730.5,281.5 Z"/></g>
<g><path style="opacity:1" fill="#a1a1a1" d="M 728.5,284.5 C 728.573,286.027 727.906,287.027 726.5,287.5C 726.427,285.973 727.094,284.973 728.5,284.5 Z"/></g>
<g><path style="opacity:1" fill="#818181" d="M 725.5,289.5 C 725.573,291.027 724.906,292.027 723.5,292.5C 723.427,290.973 724.094,289.973 725.5,289.5 Z"/></g>
<g><path style="opacity:1" fill="#959595" d="M 723.5,292.5 C 723.573,294.027 722.906,295.027 721.5,295.5C 721.427,293.973 722.094,292.973 723.5,292.5 Z"/></g>
<g><path style="opacity:1" fill="#777777" d="M 874.5,293.5 C 874.573,295.027 873.906,296.027 872.5,296.5C 872.427,294.973 873.094,293.973 874.5,293.5 Z"/></g>
<g><path style="opacity:1" fill="#797979" d="M 872.5,296.5 C 872.573,298.027 871.906,299.027 870.5,299.5C 870.427,297.973 871.094,296.973 872.5,296.5 Z"/></g>
<g><path style="opacity:1" fill="#7a7a7a" d="M 870.5,299.5 C 870.573,301.027 869.906,302.027 868.5,302.5C 868.427,300.973 869.094,299.973 870.5,299.5 Z"/></g>
<g><path style="opacity:1" fill="#8a8a8a" d="M 718.5,300.5 C 718.573,302.027 717.906,303.027 716.5,303.5C 716.427,301.973 717.094,300.973 718.5,300.5 Z"/></g>
<g><path style="opacity:1" fill="#7c7c7c" d="M 868.5,302.5 C 868.573,304.027 867.906,305.027 866.5,305.5C 866.427,303.973 867.094,302.973 868.5,302.5 Z"/></g>
<g><path style="opacity:1" fill="#9e9e9e" d="M 716.5,303.5 C 716.573,305.027 715.906,306.027 714.5,306.5C 714.427,304.973 715.094,303.973 716.5,303.5 Z"/></g>
<g><path style="opacity:1" fill="#7d7d7d" d="M 866.5,305.5 C 866.573,307.027 865.906,308.027 864.5,308.5C 864.427,306.973 865.094,305.973 866.5,305.5 Z"/></g>
<g><path style="opacity:1" fill="#7f7f7f" d="M 713.5,308.5 C 713.573,310.027 712.906,311.027 711.5,311.5C 711.427,309.973 712.094,308.973 713.5,308.5 Z"/></g>
<g><path style="opacity:1" fill="#7e7e7e" d="M 864.5,308.5 C 864.573,310.027 863.906,311.027 862.5,311.5C 862.427,309.973 863.094,308.973 864.5,308.5 Z"/></g>
<g><path style="opacity:1" fill="#939393" d="M 711.5,311.5 C 711.573,313.027 710.906,314.027 709.5,314.5C 709.427,312.973 710.094,311.973 711.5,311.5 Z"/></g>
<g><path style="opacity:1" fill="#808080" d="M 862.5,311.5 C 862.573,313.027 861.906,314.027 860.5,314.5C 860.427,312.973 861.094,311.973 862.5,311.5 Z"/></g>
<g><path style="opacity:1" fill="#818181" d="M 860.5,314.5 C 860.573,316.027 859.906,317.027 858.5,317.5C 858.427,315.973 859.094,314.973 860.5,314.5 Z"/></g>
<g><path style="opacity:1" fill="#838383" d="M 858.5,317.5 C 858.573,319.027 857.906,320.027 856.5,320.5C 856.427,318.973 857.094,317.973 858.5,317.5 Z"/></g>
<g><path style="opacity:1" fill="#898989" d="M 706.5,319.5 C 706.573,321.027 705.906,322.027 704.5,322.5C 704.427,320.973 705.094,319.973 706.5,319.5 Z"/></g>
<g><path style="opacity:1" fill="#858585" d="M 856.5,320.5 C 856.573,322.027 855.906,323.027 854.5,323.5C 854.427,321.973 855.094,320.973 856.5,320.5 Z"/></g>
<g><path style="opacity:1" fill="#9d9d9d" d="M 704.5,322.5 C 704.573,324.027 703.906,325.027 702.5,325.5C 702.427,323.973 703.094,322.973 704.5,322.5 Z"/></g>
<g><path style="opacity:1" fill="#868686" d="M 854.5,323.5 C 854.573,325.027 853.906,326.027 852.5,326.5C 852.427,324.973 853.094,323.973 854.5,323.5 Z"/></g>
<g><path style="opacity:1" fill="#888888" d="M 852.5,326.5 C 852.573,328.027 851.906,329.027 850.5,329.5C 850.427,327.973 851.094,326.973 852.5,326.5 Z"/></g>
<g><path style="opacity:1" fill="#898989" d="M 850.5,329.5 C 850.573,331.027 849.906,332.027 848.5,332.5C 848.427,330.973 849.094,329.973 850.5,329.5 Z"/></g>
<g><path style="opacity:1" fill="#919191" d="M 699.5,330.5 C 699.573,332.027 698.906,333.027 697.5,333.5C 697.427,331.973 698.094,330.973 699.5,330.5 Z"/></g>
<g><path style="opacity:1" fill="#8a8a8a" d="M 848.5,332.5 C 848.573,334.027 847.906,335.027 846.5,335.5C 846.427,333.973 847.094,332.973 848.5,332.5 Z"/></g>
<g><path style="opacity:1" fill="#8b8b8b" d="M 846.5,335.5 C 846.573,337.027 845.906,338.027 844.5,338.5C 844.427,336.973 845.094,335.973 846.5,335.5 Z"/></g>
<g><path style="opacity:1" fill="#878787" d="M 694.5,338.5 C 694.573,340.027 693.906,341.027 692.5,341.5C 692.427,339.973 693.094,338.973 694.5,338.5 Z"/></g>
<g><path style="opacity:1" fill="#8e8e8e" d="M 844.5,338.5 C 844.573,340.027 843.906,341.027 842.5,341.5C 842.427,339.973 843.094,338.973 844.5,338.5 Z"/></g>
<g><path style="opacity:1" fill="#9b9b9b" d="M 692.5,341.5 C 692.573,343.027 691.906,344.027 690.5,344.5C 690.427,342.973 691.094,341.973 692.5,341.5 Z"/></g>
<g><path style="opacity:1" fill="#8f8f8f" d="M 842.5,341.5 C 842.573,343.027 841.906,344.027 840.5,344.5C 840.427,342.973 841.094,341.973 842.5,341.5 Z"/></g>
<g><path style="opacity:1" fill="#909090" d="M 840.5,344.5 C 840.573,346.027 839.906,347.027 838.5,347.5C 838.427,345.973 839.094,344.973 840.5,344.5 Z"/></g>
<g><path style="opacity:1" fill="#919191" d="M 838.5,347.5 C 838.573,349.027 837.906,350.027 836.5,350.5C 836.427,348.973 837.094,347.973 838.5,347.5 Z"/></g>
<g><path style="opacity:1" fill="#909090" d="M 687.5,349.5 C 687.573,351.027 686.906,352.027 685.5,352.5C 685.427,350.973 686.094,349.973 687.5,349.5 Z"/></g>
<g><path style="opacity:1" fill="#939393" d="M 836.5,350.5 C 836.573,352.027 835.906,353.027 834.5,353.5C 834.427,351.973 835.094,350.973 836.5,350.5 Z"/></g>
<g><path style="opacity:1" fill="#949494" d="M 834.5,353.5 C 834.573,355.027 833.906,356.027 832.5,356.5C 832.427,354.973 833.094,353.973 834.5,353.5 Z"/></g>
<g><path style="opacity:1" fill="#969696" d="M 832.5,356.5 C 832.573,358.027 831.906,359.027 830.5,359.5C 830.427,357.973 831.094,356.973 832.5,356.5 Z"/></g>
<g><path style="opacity:1" fill="#848484" d="M 682.5,357.5 C 682.573,359.027 681.906,360.027 680.5,360.5C 680.427,358.973 681.094,357.973 682.5,357.5 Z"/></g>
<g><path style="opacity:1" fill="#979797" d="M 830.5,359.5 C 830.573,361.027 829.906,362.027 828.5,362.5C 828.427,360.973 829.094,359.973 830.5,359.5 Z"/></g>
<g><path style="opacity:1" fill="#999999" d="M 680.5,360.5 C 680.573,362.027 679.906,363.027 678.5,363.5C 678.427,361.973 679.094,360.973 680.5,360.5 Z"/></g>
<g><path style="opacity:1" fill="#989898" d="M 828.5,362.5 C 828.573,364.027 827.906,365.027 826.5,365.5C 826.427,363.973 827.094,362.973 828.5,362.5 Z"/></g>
<g><path style="opacity:1" fill="#9a9a9a" d="M 826.5,365.5 C 826.573,367.027 825.906,368.027 824.5,368.5C 824.427,366.973 825.094,365.973 826.5,365.5 Z"/></g>
<g><path style="opacity:1" fill="#8f8f8f" d="M 675.5,368.5 C 675.573,370.027 674.906,371.027 673.5,371.5C 673.427,369.973 674.094,368.973 675.5,368.5 Z"/></g>
<g><path style="opacity:1" fill="#9b9b9b" d="M 824.5,368.5 C 824.573,370.027 823.906,371.027 822.5,371.5C 822.427,369.973 823.094,368.973 824.5,368.5 Z"/></g>
<g><path style="opacity:1" fill="#a2a2a2" d="M 673.5,371.5 C 673.573,373.027 672.906,374.027 671.5,374.5C 671.427,372.973 672.094,371.973 673.5,371.5 Z"/></g>
<g><path style="opacity:1" fill="#9c9c9c" d="M 822.5,371.5 C 822.573,373.027 821.906,374.027 820.5,374.5C 820.427,372.973 821.094,371.973 822.5,371.5 Z"/></g>
<g><path style="opacity:1" fill="#9f9f9f" d="M 820.5,374.5 C 820.573,376.027 819.906,377.027 818.5,377.5C 818.427,375.973 819.094,374.973 820.5,374.5 Z"/></g>
<g><path style="opacity:1" fill="#828282" d="M 670.5,376.5 C 670.573,378.027 669.906,379.027 668.5,379.5C 668.427,377.973 669.094,376.973 670.5,376.5 Z"/></g>
<g><path style="opacity:1" fill="#a0a0a0" d="M 818.5,377.5 C 818.573,379.027 817.906,380.027 816.5,380.5C 816.427,378.973 817.094,377.973 818.5,377.5 Z"/></g>
<g><path style="opacity:1" fill="#989898" d="M 668.5,379.5 C 668.573,381.027 667.906,382.027 666.5,382.5C 666.427,380.973 667.094,379.973 668.5,379.5 Z"/></g>
<g><path style="opacity:1" fill="#a2a2a2" d="M 816.5,380.5 C 816.573,382.027 815.906,383.027 814.5,383.5C 814.427,381.973 815.094,380.973 816.5,380.5 Z"/></g>
<g><path style="opacity:1" fill="#a2a2a2" d="M 814.5,383.5 C 814.573,385.027 813.906,386.027 812.5,386.5C 812.427,384.973 813.094,383.973 814.5,383.5 Z"/></g>
<g><path style="opacity:1" fill="#8c8c8c" d="M 663.5,387.5 C 663.573,389.027 662.906,390.027 661.5,390.5C 661.427,388.973 662.094,387.973 663.5,387.5 Z"/></g>
<g><path style="opacity:1" fill="#0b0b0b" d="M 494.5,395.5 C 494.427,397.027 495.094,398.027 496.5,398.5C 496.427,400.027 497.094,401.027 498.5,401.5C 502.672,411.65 500.672,420.483 492.5,428C 490.283,429.275 487.949,430.275 485.5,431C 360.167,431.667 234.833,431.667 109.5,431C 107.942,430.79 106.609,430.29 105.5,429.5C 105.027,428.094 104.027,427.427 102.5,427.5C 101.738,425.738 100.404,424.738 98.5,424.5C 93.4681,417.921 92.3015,410.588 95,402.5C 96.2739,399.064 98.4406,396.397 101.5,394.5C 103.027,394.573 104.027,393.906 104.5,392.5C 106.562,391.224 108.896,390.39 111.5,390C 235.167,389.333 358.833,389.333 482.5,390C 487.195,390.517 491.195,392.351 494.5,395.5 Z"/></g>
<g><path style="opacity:1" fill="#a1a1a1" d="M 661.5,390.5 C 661.573,392.027 660.906,393.027 659.5,393.5C 659.427,391.973 660.094,390.973 661.5,390.5 Z"/></g>
<g><path style="opacity:1" fill="#818181" d="M 104.5,392.5 C 104.027,393.906 103.027,394.573 101.5,394.5C 101.973,393.094 102.973,392.427 104.5,392.5 Z"/></g>
<g><path style="opacity:1" fill="#a3a3a3" d="M 494.5,395.5 C 495.906,395.973 496.573,396.973 496.5,398.5C 495.094,398.027 494.427,397.027 494.5,395.5 Z"/></g>
<g><path style="opacity:1" fill="#818181" d="M 658.5,395.5 C 658.573,397.027 657.906,398.027 656.5,398.5C 656.427,396.973 657.094,395.973 658.5,395.5 Z"/></g>
<g><path style="opacity:1" fill="#909090" d="M 496.5,398.5 C 497.906,398.973 498.573,399.973 498.5,401.5C 497.094,401.027 496.427,400.027 496.5,398.5 Z"/></g>
<g><path style="opacity:1" fill="#959595" d="M 656.5,398.5 C 656.573,400.027 655.906,401.027 654.5,401.5C 654.427,399.973 655.094,398.973 656.5,398.5 Z"/></g>
<g><path style="opacity:1" fill="#8b8b8b" d="M 651.5,406.5 C 651.573,408.027 650.906,409.027 649.5,409.5C 649.427,407.973 650.094,406.973 651.5,406.5 Z"/></g>
<g><path style="opacity:1" fill="#a0a0a0" d="M 649.5,409.5 C 649.573,411.027 648.906,412.027 647.5,412.5C 647.427,410.973 648.094,409.973 649.5,409.5 Z"/></g>
<g><path style="opacity:1" fill="#808080" d="M 646.5,414.5 C 646.573,416.027 645.906,417.027 644.5,417.5C 644.427,415.973 645.094,414.973 646.5,414.5 Z"/></g>
<g><path style="opacity:1" fill="#949494" d="M 644.5,417.5 C 644.573,419.027 643.906,420.027 642.5,420.5C 642.427,418.973 643.094,417.973 644.5,417.5 Z"/></g>
<g><path style="opacity:1" fill="#959595" d="M 98.5,424.5 C 100.404,424.738 101.738,425.738 102.5,427.5C 100.596,427.262 99.2623,426.262 98.5,424.5 Z"/></g>
<g><path style="opacity:1" fill="#898989" d="M 639.5,425.5 C 639.573,427.027 638.906,428.027 637.5,428.5C 637.427,426.973 638.094,425.973 639.5,425.5 Z"/></g>
<g><path style="opacity:1" fill="#a0a0a0" d="M 102.5,427.5 C 104.027,427.427 105.027,428.094 105.5,429.5C 103.973,429.573 102.973,428.906 102.5,427.5 Z"/></g>
<g><path style="opacity:1" fill="#767676" d="M 785.5,427.5 C 785.573,429.027 784.906,430.027 783.5,430.5C 783.427,428.973 784.094,427.973 785.5,427.5 Z"/></g>
<g><path style="opacity:1" fill="#9d9d9d" d="M 637.5,428.5 C 637.573,430.027 636.906,431.027 635.5,431.5C 635.427,429.973 636.094,428.973 637.5,428.5 Z"/></g>
<g><path style="opacity:1" fill="#787878" d="M 783.5,430.5 C 783.573,432.027 782.906,433.027 781.5,433.5C 781.427,431.973 782.094,430.973 783.5,430.5 Z"/></g>
<g><path style="opacity:1" fill="#7e7e7e" d="M 634.5,433.5 C 634.573,435.027 633.906,436.027 632.5,436.5C 632.427,434.973 633.094,433.973 634.5,433.5 Z"/></g>
<g><path style="opacity:1" fill="#797979" d="M 781.5,433.5 C 781.573,435.027 780.906,436.027 779.5,436.5C 779.427,434.973 780.094,433.973 781.5,433.5 Z"/></g>
<g><path style="opacity:1" fill="#929292" d="M 632.5,436.5 C 632.573,438.027 631.906,439.027 630.5,439.5C 630.427,437.973 631.094,436.973 632.5,436.5 Z"/></g>
<g><path style="opacity:1" fill="#7a7a7a" d="M 779.5,436.5 C 779.573,438.027 778.906,439.027 777.5,439.5C 777.427,437.973 778.094,436.973 779.5,436.5 Z"/></g>
<g><path style="opacity:1" fill="#7c7c7c" d="M 777.5,439.5 C 777.573,441.027 776.906,442.027 775.5,442.5C 775.427,440.973 776.094,439.973 777.5,439.5 Z"/></g>
<g><path style="opacity:1" fill="#7e7e7e" d="M 775.5,442.5 C 775.573,444.027 774.906,445.027 773.5,445.5C 773.427,443.973 774.094,442.973 775.5,442.5 Z"/></g>
<g><path style="opacity:1" fill="#888888" d="M 627.5,444.5 C 627.573,446.027 626.906,447.027 625.5,447.5C 625.427,445.973 626.094,444.973 627.5,444.5 Z"/></g>
<g><path style="opacity:1" fill="#7f7f7f" d="M 773.5,445.5 C 773.573,447.027 772.906,448.027 771.5,448.5C 771.427,446.973 772.094,445.973 773.5,445.5 Z"/></g>
<g><path style="opacity:1" fill="#9b9b9b" d="M 625.5,447.5 C 625.573,449.027 624.906,450.027 623.5,450.5C 623.427,448.973 624.094,447.973 625.5,447.5 Z"/></g>
<g><path style="opacity:1" fill="#818181" d="M 771.5,448.5 C 771.573,450.027 770.906,451.027 769.5,451.5C 769.427,449.973 770.094,448.973 771.5,448.5 Z"/></g>
<g><path style="opacity:1" fill="#828282" d="M 769.5,451.5 C 769.573,453.027 768.906,454.027 767.5,454.5C 767.427,452.973 768.094,451.973 769.5,451.5 Z"/></g>
<g><path style="opacity:1" fill="#838383" d="M 767.5,454.5 C 767.573,456.027 766.906,457.027 765.5,457.5C 765.427,455.973 766.094,454.973 767.5,454.5 Z"/></g>
<g><path style="opacity:1" fill="#919191" d="M 620.5,455.5 C 620.573,457.027 619.906,458.027 618.5,458.5C 618.427,456.973 619.094,455.973 620.5,455.5 Z"/></g>
<g><path style="opacity:1" fill="#858585" d="M 765.5,457.5 C 765.573,459.027 764.906,460.027 763.5,460.5C 763.427,458.973 764.094,457.973 765.5,457.5 Z"/></g>
<g><path style="opacity:1" fill="#868686" d="M 763.5,460.5 C 763.573,462.027 762.906,463.027 761.5,463.5C 761.427,461.973 762.094,460.973 763.5,460.5 Z"/></g>
<g><path style="opacity:1" fill="#858585" d="M 615.5,463.5 C 615.573,465.027 614.906,466.027 613.5,466.5C 613.427,464.973 614.094,463.973 615.5,463.5 Z"/></g>
<g><path style="opacity:1" fill="#888888" d="M 761.5,463.5 C 761.573,465.027 760.906,466.027 759.5,466.5C 759.427,464.973 760.094,463.973 761.5,463.5 Z"/></g>
<g><path style="opacity:1" fill="#9a9a9a" d="M 613.5,466.5 C 613.573,468.027 612.906,469.027 611.5,469.5C 611.427,467.973 612.094,466.973 613.5,466.5 Z"/></g>
<g><path style="opacity:1" fill="#898989" d="M 759.5,466.5 C 759.573,468.027 758.906,469.027 757.5,469.5C 757.427,467.973 758.094,466.973 759.5,466.5 Z"/></g>
<g><path style="opacity:1" fill="#8b8b8b" d="M 757.5,469.5 C 757.573,471.027 756.906,472.027 755.5,472.5C 755.427,470.973 756.094,469.973 757.5,469.5 Z"/></g>
<g><path style="opacity:1" fill="#8c8c8c" d="M 755.5,472.5 C 755.573,474.027 754.906,475.027 753.5,475.5C 753.427,473.973 754.094,472.973 755.5,472.5 Z"/></g>
<g><path style="opacity:1" fill="#8f8f8f" d="M 608.5,474.5 C 608.573,476.027 607.906,477.027 606.5,477.5C 606.427,475.973 607.094,474.973 608.5,474.5 Z"/></g>
<g><path style="opacity:1" fill="#8f8f8f" d="M 753.5,475.5 C 753.573,477.027 752.906,478.027 751.5,478.5C 751.427,476.973 752.094,475.973 753.5,475.5 Z"/></g>
<g><path style="opacity:1" fill="#a3a3a3" d="M 606.5,477.5 C 606.573,479.027 605.906,480.027 604.5,480.5C 604.427,478.973 605.094,477.973 606.5,477.5 Z"/></g>
<g><path style="opacity:1" fill="#8f8f8f" d="M 751.5,478.5 C 751.573,480.027 750.906,481.027 749.5,481.5C 749.427,479.973 750.094,478.973 751.5,478.5 Z"/></g>
<g><path style="opacity:1" fill="#919191" d="M 749.5,481.5 C 749.573,483.027 748.906,484.027 747.5,484.5C 747.427,482.973 748.094,481.973 749.5,481.5 Z"/></g>
<g><path style="opacity:1" fill="#848484" d="M 603.5,482.5 C 603.573,484.027 602.906,485.027 601.5,485.5C 601.427,483.973 602.094,482.973 603.5,482.5 Z"/></g>
<g><path style="opacity:1" fill="#929292" d="M 747.5,484.5 C 747.573,486.027 746.906,487.027 745.5,487.5C 745.427,485.973 746.094,484.973 747.5,484.5 Z"/></g>
<g><path style="opacity:1" fill="#999999" d="M 601.5,485.5 C 601.573,487.027 600.906,488.027 599.5,488.5C 599.427,486.973 600.094,485.973 601.5,485.5 Z"/></g>
<g><path style="opacity:1" fill="#939393" d="M 745.5,487.5 C 745.573,489.027 744.906,490.027 743.5,490.5C 743.427,488.973 744.094,487.973 745.5,487.5 Z"/></g>
<g><path style="opacity:1" fill="#949494" d="M 743.5,490.5 C 743.573,492.027 742.906,493.027 741.5,493.5C 741.427,491.973 742.094,490.973 743.5,490.5 Z"/></g>
<g><path style="opacity:1" fill="#8d8d8d" d="M 596.5,493.5 C 596.573,495.027 595.906,496.027 594.5,496.5C 594.427,494.973 595.094,493.973 596.5,493.5 Z"/></g>
<g><path style="opacity:1" fill="#979797" d="M 741.5,493.5 C 741.573,495.027 740.906,496.027 739.5,496.5C 739.427,494.973 740.094,493.973 741.5,493.5 Z"/></g>
<g><path style="opacity:1" fill="#a2a2a2" d="M 594.5,496.5 C 594.573,498.027 593.906,499.027 592.5,499.5C 592.427,497.973 593.094,496.973 594.5,496.5 Z"/></g>
<g><path style="opacity:1" fill="#989898" d="M 739.5,496.5 C 739.573,498.027 738.906,499.027 737.5,499.5C 737.427,497.973 738.094,496.973 739.5,496.5 Z"/></g>
<g><path style="opacity:1" fill="#999999" d="M 737.5,499.5 C 737.573,501.027 736.906,502.027 735.5,502.5C 735.427,500.973 736.094,499.973 737.5,499.5 Z"/></g>
<g><path style="opacity:1" fill="#828282" d="M 591.5,501.5 C 591.573,503.027 590.906,504.027 589.5,504.5C 589.427,502.973 590.094,501.973 591.5,501.5 Z"/></g>
<g><path style="opacity:1" fill="#9b9b9b" d="M 735.5,502.5 C 735.573,504.027 734.906,505.027 733.5,505.5C 733.427,503.973 734.094,502.973 735.5,502.5 Z"/></g>
<g><path style="opacity:1" fill="#979797" d="M 589.5,504.5 C 589.573,506.027 588.906,507.027 587.5,507.5C 587.427,505.973 588.094,504.973 589.5,504.5 Z"/></g>
<g><path style="opacity:1" fill="#9c9c9c" d="M 733.5,505.5 C 733.573,507.027 732.906,508.027 731.5,508.5C 731.427,506.973 732.094,505.973 733.5,505.5 Z"/></g>
<g><path style="opacity:1" fill="#9d9d9d" d="M 731.5,508.5 C 731.573,510.027 730.906,511.027 729.5,511.5C 729.427,509.973 730.094,508.973 731.5,508.5 Z"/></g>
<g><path style="opacity:1" fill="#9f9f9f" d="M 729.5,511.5 C 729.573,513.027 728.906,514.027 727.5,514.5C 727.427,512.973 728.094,511.973 729.5,511.5 Z"/></g>
<g><path style="opacity:1" fill="#8b8b8b" d="M 584.5,512.5 C 584.573,514.027 583.906,515.027 582.5,515.5C 582.427,513.973 583.094,512.973 584.5,512.5 Z"/></g>
<g><path style="opacity:1" fill="#a0a0a0" d="M 727.5,514.5 C 727.573,516.027 726.906,517.027 725.5,517.5C 725.427,515.973 726.094,514.973 727.5,514.5 Z"/></g>
<g><path style="opacity:1" fill="#a1a1a1" d="M 582.5,515.5 C 582.573,517.027 581.906,518.027 580.5,518.5C 580.427,516.973 581.094,515.973 582.5,515.5 Z"/></g>
<g><path style="opacity:1" fill="#a2a2a2" d="M 725.5,517.5 C 725.573,519.027 724.906,520.027 723.5,520.5C 723.427,518.973 724.094,517.973 725.5,517.5 Z"/></g>
<g><path style="opacity:1" fill="#808080" d="M 579.5,520.5 C 579.573,522.027 578.906,523.027 577.5,523.5C 577.427,521.973 578.094,520.973 579.5,520.5 Z"/></g>
<g><path style="opacity:1" fill="#a3a3a3" d="M 723.5,520.5 C 723.573,522.027 722.906,523.027 721.5,523.5C 721.427,521.973 722.094,520.973 723.5,520.5 Z"/></g>
<g><path style="opacity:1" fill="#959595" d="M 577.5,523.5 C 577.573,525.027 576.906,526.027 575.5,526.5C 575.427,524.973 576.094,523.973 577.5,523.5 Z"/></g>
<g><path style="opacity:1" fill="#8a8a8a" d="M 572.5,531.5 C 572.573,533.027 571.906,534.027 570.5,534.5C 570.427,532.973 571.094,531.973 572.5,531.5 Z"/></g>
<g><path style="opacity:1" fill="#9e9e9e" d="M 570.5,534.5 C 570.573,536.027 569.906,537.027 568.5,537.5C 568.427,535.973 569.094,534.973 570.5,534.5 Z"/></g>
<g><path style="opacity:1" fill="#7f7f7f" d="M 567.5,539.5 C 567.573,541.027 566.906,542.027 565.5,542.5C 565.427,540.973 566.094,539.973 567.5,539.5 Z"/></g>
<g><path style="opacity:1" fill="#939393" d="M 565.5,542.5 C 565.573,544.027 564.906,545.027 563.5,545.5C 563.427,543.973 564.094,542.973 565.5,542.5 Z"/></g>
<g><path style="opacity:1" fill="#888888" d="M 560.5,550.5 C 560.573,552.027 559.906,553.027 558.5,553.5C 558.427,551.973 559.094,550.973 560.5,550.5 Z"/></g>
<g><path style="opacity:1" fill="#9c9c9c" d="M 558.5,553.5 C 558.573,555.027 557.906,556.027 556.5,556.5C 556.427,554.973 557.094,553.973 558.5,553.5 Z"/></g>
<g><path style="opacity:1" fill="#919191" d="M 553.5,561.5 C 553.573,563.027 552.906,564.027 551.5,564.5C 551.427,562.973 552.094,561.973 553.5,561.5 Z"/></g>
<g><path style="opacity:1" fill="#767676" d="M 694.5,564.5 C 694.573,566.027 693.906,567.027 692.5,567.5C 692.427,565.973 693.094,564.973 694.5,564.5 Z"/></g>
<g><path style="opacity:1" fill="#787878" d="M 692.5,567.5 C 692.573,569.027 691.906,570.027 690.5,570.5C 690.427,568.973 691.094,567.973 692.5,567.5 Z"/></g>
<g><path style="opacity:1" fill="#878787" d="M 548.5,569.5 C 548.573,571.027 547.906,572.027 546.5,572.5C 546.427,570.973 547.094,569.973 548.5,569.5 Z"/></g>
<g><path style="opacity:1" fill="#797979" d="M 690.5,570.5 C 690.573,572.027 689.906,573.027 688.5,573.5C 688.427,571.973 689.094,570.973 690.5,570.5 Z"/></g>
<g><path style="opacity:1" fill="#9a9a9a" d="M 546.5,572.5 C 546.573,574.027 545.906,575.027 544.5,575.5C 544.427,573.973 545.094,572.973 546.5,572.5 Z"/></g>
<g><path style="opacity:1" fill="#7c7c7c" d="M 688.5,573.5 C 688.573,575.027 687.906,576.027 686.5,576.5C 686.427,574.973 687.094,573.973 688.5,573.5 Z"/></g>
<g><path style="opacity:1" fill="#7e7e7e" d="M 686.5,576.5 C 686.573,578.027 685.906,579.027 684.5,579.5C 684.427,577.973 685.094,576.973 686.5,576.5 Z"/></g>
<g><path style="opacity:1" fill="#7e7e7e" d="M 684.5,579.5 C 684.573,581.027 683.906,582.027 682.5,582.5C 682.427,580.973 683.094,579.973 684.5,579.5 Z"/></g>
<g><path style="opacity:1" fill="#7f7f7f" d="M 682.5,582.5 C 682.573,584.027 681.906,585.027 680.5,585.5C 680.427,583.973 681.094,582.973 682.5,582.5 Z"/></g>
<g><path style="opacity:1" fill="#818181" d="M 680.5,585.5 C 680.573,587.027 679.906,588.027 678.5,588.5C 678.427,586.973 679.094,585.973 680.5,585.5 Z"/></g>
<g><path style="opacity:1" fill="#7e7e7e" d="M 597.5,588.5 C 599.23,589.026 600.564,590.026 601.5,591.5C 599.368,591.446 598.035,590.446 597.5,588.5 Z"/></g>
<g><path style="opacity:1" fill="#828282" d="M 678.5,588.5 C 678.573,590.027 677.906,591.027 676.5,591.5C 676.427,589.973 677.094,588.973 678.5,588.5 Z"/></g>
<g><path style="opacity:1" fill="#848484" d="M 676.5,591.5 C 676.573,593.027 675.906,594.027 674.5,594.5C 674.427,592.973 675.094,591.973 676.5,591.5 Z"/></g>
<g><path style="opacity:1" fill="#0b0b0b" d="M 349.5,600.5 C 349.427,602.027 350.094,603.027 351.5,603.5C 357.468,614.166 355.802,623.666 346.5,632C 344.283,633.275 341.949,634.275 339.5,635C 262.833,635.667 186.167,635.667 109.5,635C 107.942,634.79 106.609,634.29 105.5,633.5C 105.027,632.094 104.027,631.427 102.5,631.5C 101.738,629.738 100.404,628.738 98.5,628.5C 93.4681,621.921 92.3015,614.588 95,606.5C 96.2739,603.064 98.4406,600.397 101.5,598.5C 103.027,598.573 104.027,597.906 104.5,596.5C 106.562,595.224 108.896,594.39 111.5,594C 186.833,593.333 262.167,593.333 337.5,594C 342.288,594.891 346.288,597.058 349.5,600.5 Z"/></g>
<g><path style="opacity:1" fill="#868686" d="M 674.5,594.5 C 674.573,596.027 673.906,597.027 672.5,597.5C 672.427,595.973 673.094,594.973 674.5,594.5 Z"/></g>
<g><path style="opacity:1" fill="#818181" d="M 104.5,596.5 C 104.027,597.906 103.027,598.573 101.5,598.5C 101.973,597.094 102.973,596.427 104.5,596.5 Z"/></g>
<g><path style="opacity:1" fill="#878787" d="M 672.5,597.5 C 672.573,599.027 671.906,600.027 670.5,600.5C 670.427,598.973 671.094,597.973 672.5,597.5 Z"/></g>
<g><path style="opacity:1" fill="#939393" d="M 349.5,600.5 C 350.906,600.973 351.573,601.973 351.5,603.5C 350.094,603.027 349.427,602.027 349.5,600.5 Z"/></g>
<g><path style="opacity:1" fill="#888888" d="M 670.5,600.5 C 670.573,602.027 669.906,603.027 668.5,603.5C 668.427,601.973 669.094,600.973 670.5,600.5 Z"/></g>
<g><path style="opacity:1" fill="#8a8a8a" d="M 668.5,603.5 C 668.573,605.027 667.906,606.027 666.5,606.5C 666.427,604.973 667.094,603.973 668.5,603.5 Z"/></g>
<g><path style="opacity:1" fill="#8b8b8b" d="M 666.5,606.5 C 666.573,608.027 665.906,609.027 664.5,609.5C 664.427,607.973 665.094,606.973 666.5,606.5 Z"/></g>
<g><path style="opacity:1" fill="#8e8e8e" d="M 664.5,609.5 C 664.573,611.027 663.906,612.027 662.5,612.5C 662.427,610.973 663.094,609.973 664.5,609.5 Z"/></g>
<g><path style="opacity:1" fill="#7b7b7b" d="M 630.5,611.5 C 632.23,612.026 633.564,613.026 634.5,614.5C 632.368,614.446 631.035,613.446 630.5,611.5 Z"/></g>
<g><path style="opacity:1" fill="#8f8f8f" d="M 662.5,612.5 C 662.573,614.027 661.906,615.027 660.5,615.5C 660.427,613.973 661.094,612.973 662.5,612.5 Z"/></g>
<g><path style="opacity:1" fill="#8f8f8f" d="M 660.5,615.5 C 660.573,617.027 659.906,618.027 658.5,618.5C 658.427,616.973 659.094,615.973 660.5,615.5 Z"/></g>
<g><path style="opacity:1" fill="#919191" d="M 658.5,618.5 C 658.573,620.027 657.906,621.027 656.5,621.5C 656.427,619.973 657.094,618.973 658.5,618.5 Z"/></g>
<g><path style="opacity:1" fill="#929292" d="M 656.5,621.5 C 656.573,623.027 655.906,624.027 654.5,624.5C 654.427,622.973 655.094,621.973 656.5,621.5 Z"/></g>
<g><path style="opacity:1" fill="#d2d2d2" d="M 576.5,624.5 C 575.833,624.833 575.167,625.167 574.5,625.5C 574.711,623.576 575.377,623.243 576.5,624.5 Z"/></g>
<g><path style="opacity:1" fill="#7d7d7d" d="M 576.5,624.5 C 578.027,624.427 579.027,625.094 579.5,626.5C 577.973,626.573 576.973,625.906 576.5,624.5 Z"/></g>
<g><path style="opacity:1" fill="#8f8f8f" d="M 654.5,624.5 C 654.332,627.051 653.332,627.718 651.5,626.5C 652.5,625.833 653.5,625.167 654.5,624.5 Z"/></g>
<g><path style="opacity:1" fill="#959595" d="M 98.5,628.5 C 100.404,628.738 101.738,629.738 102.5,631.5C 100.596,631.262 99.2623,630.262 98.5,628.5 Z"/></g>
<g><path style="opacity:1" fill="#a0a0a0" d="M 102.5,631.5 C 104.027,631.427 105.027,632.094 105.5,633.5C 103.973,633.573 102.973,632.906 102.5,631.5 Z"/></g>
<g><path style="opacity:1" fill="#898989" d="M 586.5,631.5 C 588.027,631.427 589.027,632.094 589.5,633.5C 587.973,633.573 586.973,632.906 586.5,631.5 Z"/></g>
<g><path style="opacity:1" fill="#797979" d="M 592.5,635.5 C 594.404,635.738 595.738,636.738 596.5,638.5C 594.596,638.262 593.262,637.262 592.5,635.5 Z"/></g>
<g><path style="opacity:1" fill="#8f8f8f" d="M 596.5,638.5 C 598.027,638.427 599.027,639.094 599.5,640.5C 597.973,640.573 596.973,639.906 596.5,638.5 Z"/></g>
<g><path style="opacity:1" fill="#818181" d="M 599.5,640.5 C 601.027,640.427 602.027,641.094 602.5,642.5C 600.973,642.573 599.973,641.906 599.5,640.5 Z"/></g>
<g><path style="opacity:1" fill="#898989" d="M 609.5,647.5 C 611.027,647.427 612.027,648.094 612.5,649.5C 610.973,649.573 609.973,648.906 609.5,647.5 Z"/></g>
<g><path style="opacity:1" fill="#7a7a7a" d="M 615.5,651.5 C 617.404,651.738 618.738,652.738 619.5,654.5C 617.596,654.262 616.262,653.262 615.5,651.5 Z"/></g>
<g><path style="opacity:1" fill="#888888" d="M 616.5,658.5 C 616.027,659.906 615.027,660.573 613.5,660.5C 613.973,659.094 614.973,658.427 616.5,658.5 Z"/></g>
<g><path style="opacity:1" fill="#7a7a7a" d="M 613.5,660.5 C 613.027,661.906 612.027,662.573 610.5,662.5C 610.973,661.094 611.973,660.427 613.5,660.5 Z"/></g>
<g><path style="opacity:1" fill="#878787" d="M 602.5,667.5 C 602.027,668.906 601.027,669.573 599.5,669.5C 599.973,668.094 600.973,667.427 602.5,667.5 Z"/></g>
<g><path style="opacity:1" fill="#7c7c7c" d="M 599.5,669.5 C 599.027,670.906 598.027,671.573 596.5,671.5C 596.973,670.094 597.973,669.427 599.5,669.5 Z"/></g>
<g><path style="opacity:1" fill="#818181" d="M 585.5,678.5 C 585.027,679.906 584.027,680.573 582.5,680.5C 582.973,679.094 583.973,678.427 585.5,678.5 Z"/></g>
<g><path style="opacity:1" fill="#2c2c2c" d="M 745.5,680.5 C 758.99,679.504 772.656,679.171 786.5,679.5C 786.832,739.669 786.499,799.669 785.5,859.5C 785.5,799.833 785.5,740.167 785.5,680.5C 772.167,680.5 758.833,680.5 745.5,680.5 Z"/></g>
<g><path style="opacity:1" fill="#888888" d="M 571.5,687.5 C 571.027,688.906 570.027,689.573 568.5,689.5C 568.973,688.094 569.973,687.427 571.5,687.5 Z"/></g>
<g><path style="opacity:1" fill="#7a7a7a" d="M 568.5,689.5 C 568.027,690.906 567.027,691.573 565.5,691.5C 565.973,690.094 566.973,689.427 568.5,689.5 Z"/></g>
<g><path style="opacity:1" fill="#b4b4b4" d="M 562.5,688.5 C 562.232,690.099 562.566,691.432 563.5,692.5C 563.44,693.043 563.107,693.376 562.5,693.5C 561.212,691.701 561.212,690.035 562.5,688.5 Z"/></g>
<g><path style="opacity:1" fill="#8c8c8c" d="M 45.5,865.5 C 46.9063,865.973 47.573,866.973 47.5,868.5C 46.0937,868.027 45.427,867.027 45.5,865.5 Z"/></g>
<g><path style="opacity:1" fill="#767676" d="M 740.5,865.5 C 740.573,867.027 739.906,868.027 738.5,868.5C 738.427,866.973 739.094,865.973 740.5,865.5 Z"/></g>
<g><path style="opacity:1" fill="#7c7c7c" d="M 732.5,874.5 C 732.027,875.906 731.027,876.573 729.5,876.5C 729.973,875.094 730.973,874.427 732.5,874.5 Z"/></g>
<g><path style="opacity:1" fill="#797979" d="M 55.5,875.5 C 56.7095,875.932 57.7095,876.599 58.5,877.5C 56.8212,877.715 55.8212,877.048 55.5,875.5 Z"/></g>
<g><path style="opacity:1" fill="#5c5c5c" d="M 725.5,878.5 C 723.081,880.862 720.081,881.862 716.5,881.5C 719.341,880.331 722.341,879.331 725.5,878.5 Z"/></g>
<g><path style="opacity:1" fill="#8c8c8c" d="M 22.5,902.5 C 24.4044,902.738 25.7377,903.738 26.5,905.5C 24.5956,905.262 23.2623,904.262 22.5,902.5 Z"/></g>
<g><path style="opacity:1" fill="#777777" d="M 27.5,906.5 C 29.4044,906.738 30.7377,907.738 31.5,909.5C 29.5956,909.262 28.2623,908.262 27.5,906.5 Z"/></g>
<g><path style="opacity:1" fill="#8f8f8f" d="M 31.5,909.5 C 33.0269,909.427 34.0269,910.094 34.5,911.5C 32.9731,911.573 31.9731,910.906 31.5,909.5 Z"/></g>
<g><path style="opacity:1" fill="#707070" d="M 48.5,918.5 C 51.1522,918.41 53.4855,919.076 55.5,920.5C 52.8478,920.59 50.5145,919.924 48.5,918.5 Z"/></g>
</svg>
